# xmcd
#
# Track frame offsets: 
#        150
#        18579
#        34822
#        51204
#        66855
#        84144
#        102639
#        120230
#        139321
#        155483
#
# Disc length: 2293 seconds
#
# Revision: 1
# Processed by: cddbd v1.5.2PL0 Copyright (c) Steve Scherf et al.
# Submitted via: ExactAudioCopy v0.99pb4
#
DISCID=8108f30a
DTITLE=ฝน ธนสุนทร - แผลเป็นวาเลนไทล์
DYEAR=2004
DGENRE=Country
TTITLE0=แผลเป็นวาเลนไทน์
TTITLE1=ขี้เหร่'นรัก
TTITLE2=ให้พี่คนเดียว
TTITLE3=ตอนนี้เธออยู่ไหน
TTITLE4=โลเล
TTITLE5=รักฉันแล้วรักใครไม่ได้
TTITLE6=นักโทษของฉัน
TTITLE7=คนใจร้าย
TTITLE8=เข็ดจนตาย
TTITLE9=ดูเขาทำ
EXTD=
EXTT0=
EXTT1=
EXTT2=
EXTT3=
EXTT4=
EXTT5=
EXTT6=
EXTT7=
EXTT8=
EXTT9=
PLAYORDER=
